<?xml version="1.0" encoding="UTF-8"?>
<!--Generator: Apple Native CoreSVG 123-->
<!DOCTYPE svg
PUBLIC "-//W3C//DTD SVG 1.1//EN"
       "http://www.w3.org/Graphics/SVG/1.1/DTD/svg11.dtd">
<svg version="1.1" xmlns="http://www.w3.org/2000/svg" xmlns:xlink="http://www.w3.org/1999/xlink" width="3300" height="2200">
 <!--glyph: "uni10044A.medium", point size: 100.000000, font version: "Version 15.0d7e11", template writer version: "5"-->
 <g id="Notes">
  <rect height="2200" id="artboard" style="fill:white;opacity:1" width="3300" x="0" y="0"/>
  <line id="" style="fill:none;stroke:black;opacity:1;stroke-width:0.5;" x1="263" x2="3036" y1="292" y2="292"/>
  <text style="stroke:none;fill:black;font-family:-apple-system,&quot;SF Pro Display&quot;,&quot;SF Pro Text&quot;,Helvetica,sans-serif;font-weight:bold;" transform="matrix(1 0 0 1 263 322)">Weight/Scale Variations</text>
  <text style="stroke:none;fill:black;font-family:-apple-system,&quot;SF Pro Display&quot;,&quot;SF Pro Text&quot;,Helvetica,sans-serif;text-anchor:middle;" transform="matrix(1 0 0 1 559.711 322)">Ultralight</text>
  <text style="stroke:none;fill:black;font-family:-apple-system,&quot;SF Pro Display&quot;,&quot;SF Pro Text&quot;,Helvetica,sans-serif;text-anchor:middle;" transform="matrix(1 0 0 1 856.422 322)">Thin</text>
  <text style="stroke:none;fill:black;font-family:-apple-system,&quot;SF Pro Display&quot;,&quot;SF Pro Text&quot;,Helvetica,sans-serif;text-anchor:middle;" transform="matrix(1 0 0 1 1153.13 322)">Light</text>
  <text style="stroke:none;fill:black;font-family:-apple-system,&quot;SF Pro Display&quot;,&quot;SF Pro Text&quot;,Helvetica,sans-serif;text-anchor:middle;" transform="matrix(1 0 0 1 1449.84 322)">Regular</text>
  <text style="stroke:none;fill:black;font-family:-apple-system,&quot;SF Pro Display&quot;,&quot;SF Pro Text&quot;,Helvetica,sans-serif;text-anchor:middle;" transform="matrix(1 0 0 1 1746.56 322)">Medium</text>
  <text style="stroke:none;fill:black;font-family:-apple-system,&quot;SF Pro Display&quot;,&quot;SF Pro Text&quot;,Helvetica,sans-serif;text-anchor:middle;" transform="matrix(1 0 0 1 2043.27 322)">Semibold</text>
  <text style="stroke:none;fill:black;font-family:-apple-system,&quot;SF Pro Display&quot;,&quot;SF Pro Text&quot;,Helvetica,sans-serif;text-anchor:middle;" transform="matrix(1 0 0 1 2339.98 322)">Bold</text>
  <text style="stroke:none;fill:black;font-family:-apple-system,&quot;SF Pro Display&quot;,&quot;SF Pro Text&quot;,Helvetica,sans-serif;text-anchor:middle;" transform="matrix(1 0 0 1 2636.69 322)">Heavy</text>
  <text style="stroke:none;fill:black;font-family:-apple-system,&quot;SF Pro Display&quot;,&quot;SF Pro Text&quot;,Helvetica,sans-serif;text-anchor:middle;" transform="matrix(1 0 0 1 2933.4 322)">Black</text>
  <line id="" style="fill:none;stroke:black;opacity:1;stroke-width:0.5;" x1="263" x2="3036" y1="1903" y2="1903"/>
  <g id="" transform="matrix(1 0 0 1 263 1933)">
   <path d="M 9.24805 0.830078 C 13.5547 0.830078 17.1387 -2.74414 17.1387 -7.05078 C 17.1387 -11.3574 13.5449 -14.9316 9.23828 -14.9316 C 4.94141 -14.9316 1.36719 -11.3574 1.36719 -7.05078 C 1.36719 -2.74414 4.95117 0.830078 9.24805 0.830078 Z M 9.24805 -0.654297 C 5.70312 -0.654297 2.87109 -3.49609 2.87109 -7.05078 C 2.87109 -10.6055 5.69336 -13.4473 9.23828 -13.4473 C 12.793 -13.4473 15.6348 -10.6055 15.6445 -7.05078 C 15.6543 -3.49609 12.8027 -0.654297 9.24805 -0.654297 Z M 9.22852 -3.42773 C 9.69727 -3.42773 9.9707 -3.74023 9.9707 -4.25781 L 9.9707 -6.31836 L 12.1973 -6.31836 C 12.6953 -6.31836 13.0371 -6.57227 13.0371 -7.04102 C 13.0371 -7.51953 12.7148 -7.7832 12.1973 -7.7832 L 9.9707 -7.7832 L 9.9707 -10.0098 C 9.9707 -10.5273 9.69727 -10.8496 9.22852 -10.8496 C 8.75977 -10.8496 8.50586 -10.5078 8.50586 -10.0098 L 8.50586 -7.7832 L 6.29883 -7.7832 C 5.78125 -7.7832 5.44922 -7.51953 5.44922 -7.04102 C 5.44922 -6.57227 5.80078 -6.31836 6.29883 -6.31836 L 8.50586 -6.31836 L 8.50586 -4.25781 C 8.50586 -3.75977 8.75977 -3.42773 9.22852 -3.42773 Z"/>
  </g>
  <g id="" transform="matrix(1 0 0 1 281.506 1933)">
   <path d="M 11.709 2.91016 C 17.1582 2.91016 21.6699 -1.60156 21.6699 -7.05078 C 21.6699 -12.4902 17.1484 -17.0117 11.6992 -17.0117 C 6.25977 -17.0117 1.74805 -12.4902 1.74805 -7.05078 C 1.74805 -1.60156 6.26953 2.91016 11.709 2.91016 Z M 11.709 1.25 C 7.09961 1.25 3.41797 -2.44141 3.41797 -7.05078 C 3.41797 -11.6504 7.08984 -15.3516 11.6992 -15.3516 C 16.3086 -15.3516 20 -11.6504 20.0098 -7.05078 C 20.0195 -2.44141 16.3184 1.25 11.709 1.25 Z M 11.6895 -2.41211 C 12.207 -2.41211 12.5195 -2.77344 12.5195 -3.33984 L 12.5195 -6.23047 L 15.5762 -6.23047 C 16.123 -6.23047 16.5039 -6.51367 16.5039 -7.03125 C 16.5039 -7.55859 16.1426 -7.86133 15.5762 -7.86133 L 12.5195 -7.86133 L 12.5195 -10.9277 C 12.5195 -11.5039 12.207 -11.8555 11.6895 -11.8555 C 11.1719 -11.8555 10.8789 -11.4844 10.8789 -10.9277 L 10.8789 -7.86133 L 7.83203 -7.86133 C 7.26562 -7.86133 6.89453 -7.55859 6.89453 -7.03125 C 6.89453 -6.51367 7.28516 -6.23047 7.83203 -6.23047 L 10.8789 -6.23047 L 10.8789 -3.33984 C 10.8789 -2.79297 11.1719 -2.41211 11.6895 -2.41211 Z"/>
  </g>
  <g id="" transform="matrix(1 0 0 1 304.924 1933)">
   <path d="M 14.9707 5.67383 C 21.9336 5.67383 27.6953 -0.078125 27.6953 -7.04102 C 27.6953 -14.0039 21.9238 -19.7559 14.9609 -19.7559 C 8.00781 -19.7559 2.25586 -14.0039 2.25586 -7.04102 C 2.25586 -0.078125 8.01758 5.67383 14.9707 5.67383 Z M 14.9707 3.85742 C 8.93555 3.85742 4.08203 -1.00586 4.08203 -7.04102 C 4.08203 -13.0762 8.92578 -17.9395 14.9609 -17.9395 C 21.0059 -17.9395 25.8594 -13.0762 25.8691 -7.04102 C 25.8789 -1.00586 21.0156 3.85742 14.9707 3.85742 Z M 14.9512 -1.06445 C 15.5176 -1.06445 15.8691 -1.45508 15.8691 -2.06055 L 15.8691 -6.13281 L 20.1074 -6.13281 C 20.6934 -6.13281 21.1133 -6.46484 21.1133 -7.02148 C 21.1133 -7.59766 20.7227 -7.93945 20.1074 -7.93945 L 15.8691 -7.93945 L 15.8691 -12.1875 C 15.8691 -12.8027 15.5176 -13.1934 14.9512 -13.1934 C 14.3848 -13.1934 14.0625 -12.7832 14.0625 -12.1875 L 14.0625 -7.93945 L 9.83398 -7.93945 C 9.21875 -7.93945 8.80859 -7.59766 8.80859 -7.02148 C 8.80859 -6.46484 9.23828 -6.13281 9.83398 -6.13281 L 14.0625 -6.13281 L 14.0625 -2.06055 C 14.0625 -1.47461 14.3848 -1.06445 14.9512 -1.06445 Z"/>
  </g>
  <text style="stroke:none;fill:black;font-family:-apple-system,&quot;SF Pro Display&quot;,&quot;SF Pro Text&quot;,Helvetica,sans-serif;font-weight:bold;" transform="matrix(1 0 0 1 263 1953)">Design Variations</text>
  <text style="stroke:none;fill:black;font-family:-apple-system,&quot;SF Pro Display&quot;,&quot;SF Pro Text&quot;,Helvetica,sans-serif;" transform="matrix(1 0 0 1 263 1971)">Symbols are supported in up to nine weights and three scales.</text>
  <text style="stroke:none;fill:black;font-family:-apple-system,&quot;SF Pro Display&quot;,&quot;SF Pro Text&quot;,Helvetica,sans-serif;" transform="matrix(1 0 0 1 263 1989)">For optimal layout with text and other symbols, vertically align</text>
  <text style="stroke:none;fill:black;font-family:-apple-system,&quot;SF Pro Display&quot;,&quot;SF Pro Text&quot;,Helvetica,sans-serif;" transform="matrix(1 0 0 1 263 2007)">symbols with the adjacent text.</text>
  <rect height="14" id="" style="fill:#00AEEF;stroke:none;opacity:0.4;" width="3" x="776" y="1919"/>
  <g id="" transform="matrix(1 0 0 1 779 1933)">
   <path d="M 10.5273 0 L 12.373 0 L 7.17773 -14.0918 L 5.43945 -14.0918 L 0.244141 0 L 2.08984 0 L 3.50586 -4.0332 L 9.11133 -4.0332 Z M 6.2793 -11.9531 L 6.33789 -11.9531 L 8.59375 -5.52734 L 4.02344 -5.52734 Z"/>
  </g>
  <rect height="14" id="" style="fill:#00AEEF;stroke:none;opacity:0.4;" width="3" x="791.617" y="1919"/>
  <text style="stroke:none;fill:black;font-family:-apple-system,&quot;SF Pro Display&quot;,&quot;SF Pro Text&quot;,Helvetica,sans-serif;font-weight:bold;" transform="matrix(1 0 0 1 776 1953)">Margins</text>
  <text style="stroke:none;fill:black;font-family:-apple-system,&quot;SF Pro Display&quot;,&quot;SF Pro Text&quot;,Helvetica,sans-serif;" transform="matrix(1 0 0 1 776 1971)">Leading and trailing margins on the left and right side of each symbol</text>
  <text style="stroke:none;fill:black;font-family:-apple-system,&quot;SF Pro Display&quot;,&quot;SF Pro Text&quot;,Helvetica,sans-serif;" transform="matrix(1 0 0 1 776 1989)">can be adjusted by modifying the width of the blue rectangles.</text>
  <text style="stroke:none;fill:black;font-family:-apple-system,&quot;SF Pro Display&quot;,&quot;SF Pro Text&quot;,Helvetica,sans-serif;" transform="matrix(1 0 0 1 776 2007)">Modifications are automatically applied proportionally to all</text>
  <text style="stroke:none;fill:black;font-family:-apple-system,&quot;SF Pro Display&quot;,&quot;SF Pro Text&quot;,Helvetica,sans-serif;" transform="matrix(1 0 0 1 776 2025)">scales and weights.</text>
  <g id="" transform="matrix(1 0 0 1 1289 1933)">
   <path d="M 2.83203 3.11523 L 4.375 4.6582 C 5.22461 5.48828 6.19141 5.41992 7.06055 4.46289 L 17.2754 -6.66016 C 17.7051 -6.36719 18.0957 -6.37695 18.5645 -6.47461 L 19.6094 -6.68945 L 20.3027 -5.99609 L 20.2539 -5.47852 C 20.1855 -4.95117 20.3516 -4.53125 20.8496 -4.0332 L 21.6602 -3.22266 C 22.168 -2.71484 22.8223 -2.68555 23.3008 -3.16406 L 26.5527 -6.41602 C 27.0312 -6.89453 27.0117 -7.54883 26.5039 -8.05664 L 25.6836 -8.87695 C 25.1855 -9.375 24.7754 -9.55078 24.2383 -9.47266 L 23.7109 -9.41406 L 23.0566 -10.0781 L 23.3398 -11.2207 C 23.4863 -11.7871 23.3398 -12.2559 22.7148 -12.8613 L 20.3027 -15.2539 C 16.7578 -18.7793 12.2266 -18.6719 9.11133 -15.5371 C 8.69141 -15.1074 8.64258 -14.5215 8.91602 -14.0918 C 9.15039 -13.7207 9.62891 -13.4961 10.2734 -13.6621 C 11.7871 -14.043 13.3008 -13.9258 14.7852 -12.9199 L 14.1602 -11.3379 C 13.9258 -10.752 13.9453 -10.2734 14.1797 -9.83398 L 3.01758 0.439453 C 2.08008 1.30859 1.97266 2.25586 2.83203 3.11523 Z M 10.6738 -15.1465 C 13.3398 -17.1387 16.6504 -16.8262 19.0527 -14.4141 L 21.6797 -11.8066 C 21.9141 -11.5723 21.9434 -11.3867 21.8848 -11.0938 L 21.5039 -9.53125 L 23.0762 -7.95898 L 24.043 -8.04688 C 24.3262 -8.07617 24.4141 -8.05664 24.6387 -7.83203 L 25.2637 -7.20703 L 22.5098 -4.46289 L 21.8848 -5.07812 C 21.6602 -5.30273 21.6406 -5.40039 21.6699 -5.68359 L 21.7578 -6.64062 L 20.1953 -8.20312 L 18.5742 -7.89062 C 18.291 -7.83203 18.1445 -7.83203 17.9102 -8.07617 L 15.7324 -10.2539 C 15.5078 -10.4883 15.4785 -10.625 15.6055 -10.9473 L 16.5527 -13.2227 C 14.9512 -14.7559 12.8418 -15.6055 10.8008 -14.9512 C 10.7129 -14.9219 10.6445 -14.9414 10.6152 -14.9805 C 10.5859 -15.0293 10.5859 -15.0781 10.6738 -15.1465 Z M 4.10156 2.41211 C 3.61328 1.91406 3.78906 1.61133 4.12109 1.30859 L 15.0781 -8.80859 L 16.3086 -7.57812 L 6.15234 3.34961 C 5.84961 3.68164 5.46875 3.7793 5.06836 3.37891 Z"/>
  </g>
  <text style="stroke:none;fill:black;font-family:-apple-system,&quot;SF Pro Display&quot;,&quot;SF Pro Text&quot;,Helvetica,sans-serif;font-weight:bold;" transform="matrix(1 0 0 1 1289 1953)">Exporting</text>
  <text style="stroke:none;fill:black;font-family:-apple-system,&quot;SF Pro Display&quot;,&quot;SF Pro Text&quot;,Helvetica,sans-serif;" transform="matrix(1 0 0 1 1289 1971)">Symbols should be outlined when exporting to ensure the</text>
  <text style="stroke:none;fill:black;font-family:-apple-system,&quot;SF Pro Display&quot;,&quot;SF Pro Text&quot;,Helvetica,sans-serif;" transform="matrix(1 0 0 1 1289 1989)">design is preserved when submitting to Xcode.</text>
  <text id="template-version" style="stroke:none;fill:black;font-family:-apple-system,&quot;SF Pro Display&quot;,&quot;SF Pro Text&quot;,Helvetica,sans-serif;text-anchor:end;" transform="matrix(1 0 0 1 3036 1933)">Template v.1.0</text>
  <text style="stroke:none;fill:black;font-family:-apple-system,&quot;SF Pro Display&quot;,&quot;SF Pro Text&quot;,Helvetica,sans-serif;text-anchor:end;" transform="matrix(1 0 0 1 3036 1951)">Generated from gift.fill</text>
  <text style="stroke:none;fill:black;font-family:-apple-system,&quot;SF Pro Display&quot;,&quot;SF Pro Text&quot;,Helvetica,sans-serif;text-anchor:end;" transform="matrix(1 0 0 1 3036 1969)">Typeset at 100 points</text>
  <text style="stroke:none;fill:black;font-family:-apple-system,&quot;SF Pro Display&quot;,&quot;SF Pro Text&quot;,Helvetica,sans-serif;" transform="matrix(1 0 0 1 263 726)">Small</text>
  <text style="stroke:none;fill:black;font-family:-apple-system,&quot;SF Pro Display&quot;,&quot;SF Pro Text&quot;,Helvetica,sans-serif;" transform="matrix(1 0 0 1 263 1156)">Medium</text>
  <text style="stroke:none;fill:black;font-family:-apple-system,&quot;SF Pro Display&quot;,&quot;SF Pro Text&quot;,Helvetica,sans-serif;" transform="matrix(1 0 0 1 263 1586)">Large</text>
 </g>
 <g id="Guides">
  <g id="H-reference" style="fill:#27AAE1;stroke:none;" transform="matrix(1 0 0 1 339 696)">
   <path d="M 54.9316 0 L 57.666 0 L 30.5664 -70.459 L 28.0762 -70.459 L 0.976562 0 L 3.66211 0 L 12.9395 -24.4629 L 45.7031 -24.4629 Z M 29.1992 -67.0898 L 29.4434 -67.0898 L 44.8242 -26.709 L 13.8184 -26.709 Z"/>
  </g>
  <line id="Baseline-S" style="fill:none;stroke:#27AAE1;opacity:1;stroke-width:0.577;" x1="263" x2="3036" y1="696" y2="696"/>
  <line id="Capline-S" style="fill:none;stroke:#27AAE1;opacity:1;stroke-width:0.577;" x1="263" x2="3036" y1="625.541" y2="625.541"/>
  <g id="H-reference" style="fill:#27AAE1;stroke:none;" transform="matrix(1 0 0 1 339 1126)">
   <path d="M 54.9316 0 L 57.666 0 L 30.5664 -70.459 L 28.0762 -70.459 L 0.976562 0 L 3.66211 0 L 12.9395 -24.4629 L 45.7031 -24.4629 Z M 29.1992 -67.0898 L 29.4434 -67.0898 L 44.8242 -26.709 L 13.8184 -26.709 Z"/>
  </g>
  <line id="Baseline-M" style="fill:none;stroke:#27AAE1;opacity:1;stroke-width:0.577;" x1="263" x2="3036" y1="1126" y2="1126"/>
  <line id="Capline-M" style="fill:none;stroke:#27AAE1;opacity:1;stroke-width:0.577;" x1="263" x2="3036" y1="1055.54" y2="1055.54"/>
  <g id="H-reference" style="fill:#27AAE1;stroke:none;" transform="matrix(1 0 0 1 339 1556)">
   <path d="M 54.9316 0 L 57.666 0 L 30.5664 -70.459 L 28.0762 -70.459 L 0.976562 0 L 3.66211 0 L 12.9395 -24.4629 L 45.7031 -24.4629 Z M 29.1992 -67.0898 L 29.4434 -67.0898 L 44.8242 -26.709 L 13.8184 -26.709 Z"/>
  </g>
  <line id="Baseline-L" style="fill:none;stroke:#27AAE1;opacity:1;stroke-width:0.577;" x1="263" x2="3036" y1="1556" y2="1556"/>
  <line id="Capline-L" style="fill:none;stroke:#27AAE1;opacity:1;stroke-width:0.577;" x1="263" x2="3036" y1="1485.54" y2="1485.54"/>
  <rect height="119.336" id="left-margin" style="fill:#00AEEF;stroke:none;opacity:0.4;" width="12.4512" x="1390.45" y="1030.79"/>
  <rect height="119.336" id="right-margin" style="fill:#00AEEF;stroke:none;opacity:0.4;" width="12.4512" x="1496.79" y="1030.79"/>
 </g>
 <g id="Symbols">
  <g id="Black-L" transform="matrix(1 0 0 1 2853.25 1556)">
   <path d="M 72.4121 -37.8418 L 72.4121 -75.4883 L 62.9395 -75.4883 C 54.248 -75.4883 49.4629 -80.2246 49.4629 -86.6699 C 49.4629 -92.9199 53.9551 -96.875 60.5957 -96.875 C 67.5293 -96.875 72.5098 -91.6504 72.5098 -83.4961 L 72.5098 -75.4883 L 87.793 -75.4883 L 87.793 -83.4961 C 87.793 -91.6504 92.9688 -96.875 100.146 -96.875 C 106.494 -96.875 110.84 -92.9199 110.84 -86.6699 C 110.84 -80.3223 105.664 -75.4883 97.3633 -75.4883 L 87.9395 -75.4883 L 87.9395 -37.8418 L 128.418 -37.8418 C 139.648 -37.8418 144.238 -42.5293 144.238 -53.6621 L 144.238 -59.668 C 144.238 -70.8008 139.648 -75.4883 128.418 -75.4883 L 122.705 -75.4883 C 126.172 -79.248 128.271 -84.1797 128.271 -89.7949 C 128.271 -103.613 117.041 -113.574 103.418 -113.574 C 92.6758 -113.574 83.0078 -107.08 80.127 -95.3613 C 77.3438 -107.08 67.627 -113.574 56.8359 -113.574 C 43.2129 -113.574 31.9824 -103.613 31.9824 -89.7949 C 31.9824 -84.1797 34.082 -79.248 37.5977 -75.4883 L 31.8359 -75.4883 C 20.752 -75.4883 16.0645 -70.8008 16.0645 -59.668 L 16.0645 -53.6621 C 16.0645 -42.5293 20.6543 -37.8418 31.8359 -37.8418 Z M 72.4121 24.2188 L 72.4121 -29.4434 L 23.7305 -29.4434 L 23.7305 7.22656 C 23.7305 18.0176 30.127 24.2188 41.0156 24.2188 Z M 87.9395 -29.4434 L 87.9395 24.2188 L 119.238 24.2188 C 130.176 24.2188 136.572 18.0176 136.572 7.22656 L 136.572 -29.4434 Z"/>
  </g>
  <g id="Heavy-L" transform="matrix(1 0 0 1 2557.34 1556)">
   <path d="M 72.2168 -39.3555 L 72.2168 -75.6836 L 62.8906 -75.6836 C 53.6621 -75.6836 48.6328 -81.0059 48.6328 -87.5 C 48.6328 -93.7988 53.2715 -97.8027 59.8633 -97.8027 C 67.1387 -97.8027 72.3633 -92.2363 72.3633 -83.3984 L 72.3633 -75.6836 L 86.377 -75.6836 L 86.377 -83.3984 C 86.377 -92.2363 91.748 -97.8027 99.2188 -97.8027 C 105.566 -97.8027 110.059 -93.7988 110.059 -87.5 C 110.059 -81.0547 104.688 -75.6836 95.752 -75.6836 L 86.5234 -75.6836 L 86.5234 -39.3555 L 128.174 -39.3555 C 138.281 -39.3555 142.627 -43.6523 142.627 -53.6621 L 142.627 -61.4258 C 142.627 -71.4355 138.281 -75.6836 128.174 -75.6836 L 119.824 -75.6836 C 123.535 -79.3945 125.732 -84.3262 125.732 -89.9414 C 125.732 -103.223 114.99 -112.793 101.807 -112.793 C 91.4062 -112.793 82.2754 -106.543 79.3457 -95.4102 C 76.4648 -106.543 67.2852 -112.793 56.8848 -112.793 C 43.7012 -112.793 32.959 -103.223 32.959 -89.9414 C 32.959 -84.3262 35.1562 -79.3945 38.8672 -75.6836 L 30.5176 -75.6836 C 20.5566 -75.6836 16.0645 -71.4355 16.0645 -61.4258 L 16.0645 -53.6621 C 16.0645 -43.6523 20.4102 -39.3555 30.5176 -39.3555 Z M 72.2168 23.7793 L 72.2168 -31.4453 L 24.1211 -31.4453 L 24.1211 7.12891 C 24.1211 17.7246 30.4199 23.7793 41.1133 23.7793 Z M 86.5234 -31.4453 L 86.5234 23.7793 L 117.578 23.7793 C 128.271 23.7793 134.57 17.7246 134.57 7.12891 L 134.57 -31.4453 Z"/>
  </g>
  <g id="Bold-L" transform="matrix(1 0 0 1 2261.51 1556)">
   <path d="M 71.9727 -41.0645 L 71.9727 -75.9277 L 62.8906 -75.9277 C 52.9785 -75.9277 47.7539 -81.8848 47.7539 -88.4277 C 47.7539 -94.8242 52.4902 -98.7793 59.0332 -98.7793 C 66.6504 -98.7793 72.1191 -92.8711 72.1191 -83.3008 L 72.1191 -75.9277 L 84.8145 -75.9277 L 84.8145 -83.3008 C 84.8145 -92.8711 90.3809 -98.7793 98.1445 -98.7793 C 104.541 -98.7793 109.18 -94.8242 109.18 -88.4277 C 109.18 -81.9336 103.564 -75.9277 94.043 -75.9277 L 84.9609 -75.9277 L 84.9609 -41.0645 L 127.881 -41.0645 C 136.768 -41.0645 140.869 -44.873 140.869 -53.6133 L 140.869 -63.3789 C 140.869 -72.168 136.768 -75.9277 127.881 -75.9277 L 116.553 -75.9277 C 120.508 -79.5898 122.852 -84.5215 122.852 -90.0879 C 122.852 -102.832 112.695 -111.914 100 -111.914 C 89.9902 -111.914 81.4453 -106.006 78.4668 -95.459 C 75.4883 -106.006 66.9434 -111.914 56.8848 -111.914 C 44.1895 -111.914 34.0332 -102.832 34.0332 -90.0879 C 34.0332 -84.5215 36.377 -79.5898 40.2832 -75.9277 L 29.0039 -75.9277 C 20.3613 -75.9277 16.0645 -72.168 16.0645 -63.3789 L 16.0645 -53.6133 C 16.0645 -44.873 20.166 -41.0645 29.0039 -41.0645 Z M 71.9727 23.2422 L 71.9727 -33.6914 L 24.5605 -33.6914 L 24.5605 7.03125 C 24.5605 17.4316 30.7617 23.2422 41.2109 23.2422 Z M 84.9609 -33.6914 L 84.9609 23.2422 L 115.674 23.2422 C 126.172 23.2422 132.373 17.4316 132.373 7.03125 L 132.373 -33.6914 Z"/>
  </g>
  <g id="Semibold-L" transform="matrix(1 0 0 1 1965.43 1556)">
   <path d="M 71.7773 -42.2363 L 71.7773 -76.123 L 62.8906 -76.123 C 52.5391 -76.123 47.1191 -82.4707 47.1191 -89.1113 C 47.1191 -95.5078 51.9531 -99.5117 58.4473 -99.5117 C 66.3086 -99.5117 72.0215 -93.3105 72.0215 -83.2031 L 72.0215 -76.123 L 83.6914 -76.123 L 83.6914 -83.2031 C 83.6914 -93.3105 89.4531 -99.5117 97.4121 -99.5117 C 103.809 -99.5117 108.545 -95.5078 108.545 -89.1113 C 108.545 -82.5195 102.832 -76.123 92.8223 -76.123 L 83.8867 -76.123 L 83.8867 -42.2363 L 127.686 -42.2363 C 135.693 -42.2363 139.6 -45.7031 139.6 -53.6133 L 139.6 -64.7461 C 139.6 -72.6562 135.693 -76.123 127.686 -76.123 L 114.307 -76.123 C 118.457 -79.6875 120.898 -84.6191 120.898 -90.2344 C 120.898 -102.539 111.133 -111.328 98.7793 -111.328 C 88.9648 -111.328 80.8594 -105.615 77.832 -95.459 C 74.8535 -105.615 66.6992 -111.328 56.9336 -111.328 C 44.5312 -111.328 34.7656 -102.539 34.7656 -90.2344 C 34.7656 -84.6191 37.207 -79.6875 41.3086 -76.123 L 27.9785 -76.123 C 20.2148 -76.123 16.0645 -72.6562 16.0645 -64.7461 L 16.0645 -53.6133 C 16.0645 -45.7031 20.0195 -42.2363 27.9785 -42.2363 Z M 71.7773 22.9004 L 71.7773 -35.2539 L 24.8535 -35.2539 L 24.8535 6.93359 C 24.8535 17.2363 30.957 22.9004 41.3086 22.9004 Z M 83.8867 -35.2539 L 83.8867 22.9004 L 114.404 22.9004 C 124.707 22.9004 130.811 17.2363 130.811 6.93359 L 130.811 -35.2539 Z"/>
  </g>
  <g id="Medium-L" transform="matrix(1 0 0 1 1669.19 1556)">
   <path d="M 71.6797 -43.1641 L 71.6797 -76.2207 L 62.8418 -76.2207 C 52.1973 -76.2207 46.6309 -82.959 46.6309 -89.5996 C 46.6309 -96.0449 51.5137 -100 58.0078 -100 C 66.0645 -100 71.875 -93.6523 71.875 -83.1543 L 71.875 -76.2207 L 82.8613 -76.2207 L 82.8613 -83.1543 C 82.8613 -93.6523 88.7207 -100 96.8262 -100 C 103.271 -100 108.105 -96.0449 108.105 -89.5996 C 108.105 -82.959 102.246 -76.2207 91.8945 -76.2207 L 83.1055 -76.2207 L 83.1055 -43.1641 L 127.539 -43.1641 C 134.912 -43.1641 138.672 -46.3379 138.672 -53.5645 L 138.672 -65.7715 C 138.672 -73.0469 134.912 -76.2207 127.539 -76.2207 L 112.549 -76.2207 C 116.846 -79.7852 119.385 -84.7168 119.385 -90.2832 C 119.385 -102.344 109.912 -110.889 97.8027 -110.889 C 88.2324 -110.889 80.4199 -105.322 77.3926 -95.459 C 74.3164 -105.322 66.5039 -110.889 56.9336 -110.889 C 44.8242 -110.889 35.3516 -102.344 35.3516 -90.2832 C 35.3516 -84.7168 37.8418 -79.7852 42.0898 -76.2207 L 27.1973 -76.2207 C 20.1172 -76.2207 16.0645 -73.0469 16.0645 -65.7715 L 16.0645 -53.5645 C 16.0645 -46.3379 19.873 -43.1641 27.1973 -43.1641 Z M 71.6797 22.6562 L 71.6797 -36.4258 L 25.0977 -36.4258 L 25.0977 6.88477 C 25.0977 17.041 31.1523 22.6562 41.3574 22.6562 Z M 83.1055 -36.4258 L 83.1055 22.6562 L 113.379 22.6562 C 123.584 22.6562 129.639 17.041 129.639 6.88477 L 129.639 -36.4258 Z"/>
  </g>
  <g id="Regular-L" transform="matrix(1 0 0 1 1373.09 1556)">
   <path d="M 71.5332 -44.2871 L 71.5332 -76.416 L 62.8418 -76.416 C 51.709 -76.416 46.0449 -83.5449 46.0449 -90.2344 C 46.0449 -96.7285 50.9766 -100.684 57.4219 -100.684 C 65.7715 -100.684 71.7773 -94.0918 71.7773 -83.0566 L 71.7773 -76.416 L 81.7871 -76.416 L 81.7871 -83.0566 C 81.7871 -94.0918 87.793 -100.684 96.0938 -100.684 C 102.539 -100.684 107.52 -96.7285 107.52 -90.2344 C 107.52 -83.5449 101.514 -76.416 90.7227 -76.416 L 82.0312 -76.416 L 82.0312 -44.2871 L 127.344 -44.2871 C 133.887 -44.2871 137.451 -47.168 137.451 -53.5645 L 137.451 -67.1387 C 137.451 -73.5352 133.887 -76.416 127.344 -76.416 L 110.254 -76.416 C 114.795 -79.8828 117.48 -84.8633 117.48 -90.4297 C 117.48 -102.051 108.35 -110.303 96.582 -110.303 C 87.2559 -110.303 79.8828 -104.98 76.7578 -95.5078 C 73.6816 -104.98 66.2598 -110.303 56.9336 -110.303 C 45.166 -110.303 36.084 -102.051 36.084 -90.4297 C 36.084 -84.8633 38.6719 -79.8828 43.1641 -76.416 L 26.1719 -76.416 C 19.9707 -76.416 16.0645 -73.5352 16.0645 -67.1387 L 16.0645 -53.5645 C 16.0645 -47.168 19.7266 -44.2871 26.1719 -44.2871 Z M 71.5332 22.3145 L 71.5332 -37.9395 L 25.3906 -37.9395 L 25.3906 6.83594 C 25.3906 16.8457 31.3965 22.3145 41.4062 22.3145 Z M 82.0312 -37.9395 L 82.0312 22.3145 L 112.109 22.3145 C 122.168 22.3145 128.125 16.8457 128.125 6.83594 L 128.125 -37.9395 Z"/>
  </g>
  <g id="Light-L" transform="matrix(1 0 0 1 1076.18 1556)">
   <path d="M 72.168 -46.0938 L 72.168 -76.416 L 64.4531 -76.416 C 52.3926 -76.416 46.3867 -84.082 46.3867 -90.9668 C 46.3867 -97.0215 51.1719 -100.928 57.2754 -100.928 C 66.3574 -100.928 72.3145 -93.457 72.3145 -81.1523 L 72.3145 -76.416 L 81.5918 -76.416 L 81.5918 -81.1523 C 81.5918 -93.457 87.5977 -100.928 96.6309 -100.928 C 102.734 -100.928 107.52 -97.0215 107.52 -90.9668 C 107.52 -84.082 101.025 -76.416 89.4531 -76.416 L 81.7383 -76.416 L 81.7383 -46.0938 L 128.369 -46.0938 C 134.375 -46.0938 137.842 -49.2188 137.842 -55.1758 L 137.842 -67.334 C 137.842 -73.291 134.375 -76.416 128.369 -76.416 L 107.666 -76.416 C 113.232 -79.834 116.455 -85.0586 116.455 -90.7715 C 116.455 -101.66 108.154 -109.277 96.9238 -109.277 C 87.3047 -109.277 79.8828 -103.516 76.9531 -93.4082 C 74.0234 -103.516 66.6016 -109.277 56.9824 -109.277 C 45.752 -109.277 37.4512 -101.66 37.4512 -90.7715 C 37.4512 -85.0586 40.5273 -79.834 46.0449 -76.416 L 25.5371 -76.416 C 19.7266 -76.416 16.0645 -73.291 16.0645 -67.334 L 16.0645 -55.1758 C 16.0645 -49.2188 19.5801 -46.0938 25.5371 -46.0938 Z M 72.168 22.4609 L 72.168 -40.2344 L 25.8789 -40.2344 L 25.8789 7.71484 C 25.8789 17.1387 31.543 22.4609 40.9668 22.4609 Z M 81.7383 -40.2344 L 81.7383 22.4609 L 112.939 22.4609 C 122.363 22.4609 128.027 17.1387 128.027 7.71484 L 128.027 -40.2344 Z"/>
  </g>
  <g id="Thin-L" transform="matrix(1 0 0 1 779.225 1556)">
   <path d="M 72.998 -48.4863 L 72.998 -76.416 L 66.5527 -76.416 C 53.2227 -76.416 46.875 -84.7656 46.875 -91.9434 C 46.875 -97.4121 51.4648 -101.221 57.0801 -101.221 C 67.0898 -101.221 73.0469 -92.6758 73.0469 -78.5645 L 73.0469 -76.416 L 81.3477 -76.416 L 81.3477 -78.5645 C 81.3477 -92.6758 87.3047 -101.221 97.3633 -101.221 C 102.93 -101.221 107.52 -97.4121 107.52 -91.9434 C 107.52 -84.7656 100.439 -76.416 87.8418 -76.416 L 81.3965 -76.416 L 81.3965 -48.4863 L 129.688 -48.4863 C 135.059 -48.4863 138.33 -51.9043 138.33 -57.3242 L 138.33 -67.627 C 138.33 -72.998 135.059 -76.416 129.688 -76.416 L 103.369 -76.416 C 110.889 -79.6387 115.088 -85.3027 115.088 -91.2598 C 115.088 -101.172 107.91 -107.91 97.4121 -107.91 C 87.3047 -107.91 79.9316 -101.562 77.1973 -90.625 C 74.4629 -101.562 67.0898 -107.91 56.9824 -107.91 C 46.4844 -107.91 39.3066 -101.172 39.3066 -91.2598 C 39.3066 -85.3027 43.1641 -79.6387 50.6836 -76.416 L 24.707 -76.416 C 19.3848 -76.416 16.0645 -72.998 16.0645 -67.627 L 16.0645 -57.3242 C 16.0645 -51.9043 19.3359 -48.4863 24.707 -48.4863 Z M 72.998 22.7051 L 72.998 -43.3105 L 26.5137 -43.3105 L 26.5137 8.93555 C 26.5137 17.5293 31.7871 22.7051 40.332 22.7051 Z M 81.3965 -43.3105 L 81.3965 22.7051 L 114.062 22.7051 C 122.607 22.7051 127.881 17.5293 127.881 8.93555 L 127.881 -43.3105 Z"/>
  </g>
  <g id="Ultralight-L" transform="matrix(1 0 0 1 482.392 1556)">
   <path d="M 73.4375 -49.707 L 73.4375 -76.4648 L 67.6758 -76.4648 C 53.6621 -76.4648 47.168 -85.1562 47.168 -92.4316 C 47.168 -97.6074 51.6113 -101.367 56.9336 -101.367 C 67.4805 -101.367 73.4375 -92.2363 73.4375 -77.2461 L 73.4375 -76.4648 L 81.2012 -76.4648 L 81.2012 -49.707 L 130.322 -49.707 C 135.4 -49.707 138.574 -53.3203 138.574 -58.3984 L 138.574 -67.7246 C 138.574 -72.8516 135.4 -76.4648 130.322 -76.4648 L 100.586 -76.4648 C 109.521 -79.3945 114.404 -85.4004 114.404 -91.5039 C 114.404 -100.928 107.764 -107.227 97.6562 -107.227 C 87.3047 -107.227 79.9316 -100.586 77.3438 -89.209 C 74.707 -100.586 67.334 -107.227 56.9824 -107.227 C 46.875 -107.227 40.2344 -100.928 40.2344 -91.5039 C 40.2344 -85.4004 44.6777 -79.3945 53.7109 -76.4648 L 24.3164 -76.4648 C 19.1895 -76.4648 16.0645 -72.8516 16.0645 -67.7246 L 16.0645 -58.3984 C 16.0645 -53.3203 19.2383 -49.707 24.3164 -49.707 Z M 81.2012 -77.2461 C 81.2012 -92.2363 87.1582 -101.367 97.7051 -101.367 C 103.076 -101.367 107.52 -97.6074 107.52 -92.4316 C 107.52 -85.1562 100.098 -76.4648 87.0117 -76.4648 L 81.2012 -76.4648 Z M 73.4375 22.8516 L 73.4375 -44.873 L 26.8555 -44.873 L 26.8555 9.57031 C 26.8555 17.7246 31.8848 22.8516 40.0391 22.8516 Z M 81.2012 -44.873 L 81.2012 22.8516 L 114.6 22.8516 C 122.754 22.8516 127.832 17.7246 127.832 9.57031 L 127.832 -44.873 Z"/>
  </g>
  <g id="Black-M" transform="matrix(1 0 0 1 2870.12 1126)">
   <path d="M 56.7383 -36.1816 L 56.7383 -66.1621 L 49.6582 -66.1621 C 43.2129 -66.1621 39.5996 -69.3359 39.5996 -74.3164 C 39.5996 -78.8574 42.8711 -81.9336 47.8516 -81.9336 C 53.2227 -81.9336 56.7383 -77.8809 56.7383 -71.7285 L 56.7383 -66.1621 L 69.873 -66.1621 L 69.873 -36.1816 L 100.391 -36.1816 C 110.352 -36.1816 114.111 -40.5273 114.111 -50.4395 L 114.111 -51.9043 C 114.111 -61.7676 110.352 -66.1621 100.391 -66.1621 L 97.9004 -66.1621 C 100.635 -69.1406 102.295 -73.0469 102.295 -77.5391 C 102.295 -88.5254 93.3594 -96.4355 82.5195 -96.4355 C 73.5352 -96.4355 65.332 -90.7715 63.2812 -80.6641 C 61.2793 -90.7715 53.0273 -96.4355 44.043 -96.4355 C 33.2031 -96.4355 24.2676 -88.5254 24.2676 -77.5391 C 24.2676 -73.0469 25.9277 -69.1406 28.6621 -66.1621 L 26.1719 -66.1621 C 16.2109 -66.1621 12.4512 -61.7676 12.4512 -51.9043 L 12.4512 -50.4395 C 12.4512 -40.5273 16.2109 -36.1816 26.1719 -36.1816 Z M 69.873 -71.7285 C 69.873 -77.8809 73.584 -81.9336 79.1992 -81.9336 C 83.8379 -81.9336 86.9629 -78.8574 86.9629 -74.3164 C 86.9629 -69.4336 82.959 -66.1621 76.9043 -66.1621 L 69.873 -66.1621 Z M 56.7383 11.5234 L 56.7383 -29.2969 L 18.1152 -29.2969 L 18.1152 -1.66016 C 18.1152 6.54297 22.998 11.5234 31.4453 11.5234 Z M 69.873 -29.2969 L 69.873 11.5234 L 95.1172 11.5234 C 103.516 11.5234 108.447 6.54297 108.447 -1.66016 L 108.447 -29.2969 Z"/>
  </g>
  <g id="Heavy-M" transform="matrix(1 0 0 1 2574.34 1126)">
   <path d="M 56.3477 -37.3535 L 56.3477 -66.3574 L 49.2188 -66.3574 C 42.3828 -66.3574 38.623 -70.0684 38.623 -75.0488 C 38.623 -79.7852 42.0898 -82.8613 47.1191 -82.8613 C 52.5879 -82.8613 56.3965 -78.6621 56.3965 -72.1191 L 56.3965 -66.3574 L 68.3594 -66.3574 L 68.3594 -72.1191 C 68.3594 -78.6621 72.3145 -82.8613 78.0273 -82.8613 C 82.8125 -82.8613 86.084 -79.7852 86.084 -75.0488 C 86.084 -70.1172 82.0312 -66.3574 75.4883 -66.3574 L 68.4082 -66.3574 L 68.4082 -37.3535 L 99.8535 -37.3535 C 108.74 -37.3535 112.256 -41.1621 112.256 -49.9512 L 112.256 -53.7598 C 112.256 -62.5488 108.74 -66.3574 99.8535 -66.3574 L 95.2637 -66.3574 C 98.0957 -69.3359 99.8047 -73.1934 99.8047 -77.5879 C 99.8047 -88.1836 91.2109 -95.8496 80.6641 -95.8496 C 72.168 -95.8496 64.502 -90.625 62.3535 -81.25 C 60.2539 -90.625 52.5879 -95.8496 44.043 -95.8496 C 33.5449 -95.8496 24.9512 -88.1836 24.9512 -77.5879 C 24.9512 -73.1934 26.6113 -69.3359 29.4434 -66.3574 L 24.8535 -66.3574 C 16.0645 -66.3574 12.4512 -62.5488 12.4512 -53.7598 L 12.4512 -49.9512 C 12.4512 -41.1621 16.0156 -37.3535 24.8535 -37.3535 Z M 56.3477 10.9863 L 56.3477 -30.8594 L 18.4082 -30.8594 L 18.4082 -2.05078 C 18.4082 6.15234 23.291 10.9863 31.6406 10.9863 Z M 68.4082 -30.8594 L 68.4082 10.9863 L 93.0664 10.9863 C 101.416 10.9863 106.299 6.15234 106.299 -2.05078 L 106.299 -30.8594 Z"/>
  </g>
  <g id="Bold-M" transform="matrix(1 0 0 1 2278.65 1126)">
   <path d="M 55.9082 -38.7207 L 55.9082 -66.6504 L 48.7305 -66.6504 C 41.4551 -66.6504 37.5488 -70.8496 37.5488 -75.8789 C 37.5488 -80.8105 41.1621 -83.8867 46.2402 -83.8867 C 51.9531 -83.8867 56.0059 -79.541 56.0059 -72.5586 L 56.0059 -66.6504 L 66.6992 -66.6504 L 66.6992 -72.5586 C 66.6992 -79.541 70.8496 -83.8867 76.709 -83.8867 C 81.6406 -83.8867 85.1562 -80.8105 85.1562 -75.8789 C 85.1562 -70.8984 80.957 -66.6504 73.9258 -66.6504 L 66.7969 -66.6504 L 66.7969 -38.7207 L 99.2676 -38.7207 C 106.885 -38.7207 110.205 -41.8945 110.205 -49.4629 L 110.205 -55.8594 C 110.205 -63.4277 106.885 -66.6504 99.2676 -66.6504 L 92.334 -66.6504 C 95.2148 -69.4824 96.9727 -73.291 96.9727 -77.6367 C 96.9727 -87.8418 88.7207 -95.2148 78.5645 -95.2148 C 70.6055 -95.2148 63.623 -90.4297 61.3281 -81.8848 C 59.082 -90.4297 52.0996 -95.2148 44.0918 -95.2148 C 33.9355 -95.2148 25.7324 -87.8418 25.7324 -77.6367 C 25.7324 -73.291 27.4414 -69.4824 30.3223 -66.6504 L 23.3887 -66.6504 C 15.918 -66.6504 12.4512 -63.4277 12.4512 -55.8594 L 12.4512 -49.4629 C 12.4512 -41.8945 15.7715 -38.7207 23.3887 -38.7207 Z M 55.9082 10.4004 L 55.9082 -32.666 L 18.75 -32.666 L 18.75 -2.44141 C 18.75 5.76172 23.6328 10.4004 31.8848 10.4004 Z M 66.7969 -32.666 L 66.7969 10.4004 L 90.7715 10.4004 C 99.0234 10.4004 103.906 5.76172 103.906 -2.44141 L 103.906 -32.666 Z"/>
  </g>
  <g id="Semibold-M" transform="matrix(1 0 0 1 1982.65 1126)">
   <path d="M 55.6152 -39.6484 L 55.6152 -66.7969 L 48.3887 -66.7969 C 40.8203 -66.7969 36.7676 -71.3867 36.7676 -76.4648 C 36.7676 -81.4941 40.5273 -84.5703 45.6543 -84.5703 C 51.4648 -84.5703 55.7617 -80.127 55.7617 -72.8516 L 55.7617 -66.7969 L 65.5273 -66.7969 L 65.5273 -72.8516 C 65.5273 -80.127 69.873 -84.5703 75.7812 -84.5703 C 80.8105 -84.5703 84.4727 -81.4941 84.4727 -76.4648 C 84.4727 -71.4355 80.2246 -66.7969 72.8516 -66.7969 L 65.6738 -66.7969 L 65.6738 -39.6484 L 98.8281 -39.6484 C 105.664 -39.6484 108.789 -42.4316 108.789 -49.1211 L 108.789 -57.3242 C 108.789 -64.0137 105.664 -66.7969 98.8281 -66.7969 L 90.2832 -66.7969 C 93.2617 -69.6289 95.0195 -73.3887 95.0195 -77.6855 C 95.0195 -87.6465 87.0605 -94.7754 77.1484 -94.7754 C 69.4824 -94.7754 62.9883 -90.332 60.6445 -82.373 C 58.3008 -90.332 51.7578 -94.7754 44.0918 -94.7754 C 34.2285 -94.7754 26.2695 -87.6465 26.2695 -77.6855 C 26.2695 -73.3887 27.9785 -69.6289 30.9082 -66.7969 L 22.4121 -66.7969 C 15.8203 -66.7969 12.4512 -64.0137 12.4512 -57.3242 L 12.4512 -49.1211 C 12.4512 -42.4316 15.625 -39.6484 22.4121 -39.6484 Z M 55.6152 9.96094 L 55.6152 -33.8867 L 18.9941 -33.8867 L 18.9941 -2.68555 C 18.9941 5.46875 23.8281 9.96094 32.0801 9.96094 Z M 65.6738 -33.8867 L 65.6738 9.96094 L 89.209 9.96094 C 97.4121 9.96094 102.246 5.46875 102.246 -2.68555 L 102.246 -33.8867 Z"/>
  </g>
  <g id="Medium-M" transform="matrix(1 0 0 1 1686.47 1126)">
   <path d="M 55.3711 -40.332 L 55.3711 -66.9434 L 48.1445 -66.9434 C 40.332 -66.9434 36.2305 -71.8262 36.2305 -76.8555 C 36.2305 -82.0312 40.0391 -85.1562 45.2148 -85.1562 C 51.123 -85.1562 55.5664 -80.5664 55.5664 -73.0957 L 55.5664 -66.9434 L 64.6484 -66.9434 L 64.6484 -73.0957 C 64.6484 -80.5664 69.1406 -85.1562 75.0977 -85.1562 C 80.1758 -85.1562 83.9844 -82.0312 83.9844 -76.8555 C 83.9844 -71.8262 79.6387 -66.9434 72.0703 -66.9434 L 64.8438 -66.9434 L 64.8438 -40.332 L 98.5352 -40.332 C 104.688 -40.332 107.715 -42.8223 107.715 -48.877 L 107.715 -58.3984 C 107.715 -64.4531 104.688 -66.9434 98.5352 -66.9434 L 88.7695 -66.9434 C 91.748 -69.7266 93.5547 -73.4863 93.5547 -77.7344 C 93.5547 -87.4512 85.791 -94.4336 76.0742 -94.4336 C 68.7012 -94.4336 62.5 -90.2344 60.1074 -82.7148 C 57.666 -90.2344 51.5137 -94.4336 44.0918 -94.4336 C 34.4238 -94.4336 26.6602 -87.4512 26.6602 -77.7344 C 26.6602 -73.4863 28.418 -69.7266 31.3965 -66.9434 L 21.6309 -66.9434 C 15.7227 -66.9434 12.4512 -64.4531 12.4512 -58.3984 L 12.4512 -48.877 C 12.4512 -42.8223 15.5273 -40.332 21.6309 -40.332 Z M 55.3711 9.66797 L 55.3711 -34.8145 L 19.1895 -34.8145 L 19.1895 -2.88086 C 19.1895 5.27344 24.0234 9.66797 32.1777 9.66797 Z M 64.8438 -34.8145 L 64.8438 9.66797 L 87.9883 9.66797 C 96.1914 9.66797 101.025 5.27344 101.025 -2.88086 L 101.025 -34.8145 Z"/>
  </g>
  <g id="Regular-M" transform="matrix(1 0 0 1 1390.45 1126)">
   <path d="M 55.0781 -41.2598 L 55.0781 -67.1387 L 47.8027 -67.1387 C 39.7461 -67.1387 35.4492 -72.3633 35.4492 -77.4414 C 35.4492 -82.7148 39.4043 -85.8398 44.6289 -85.8398 C 50.6348 -85.8398 55.3223 -81.2012 55.3223 -73.4375 L 55.3223 -67.1387 L 63.4766 -67.1387 L 63.4766 -73.4375 C 63.4766 -81.2012 68.1641 -85.8398 74.1699 -85.8398 C 79.3945 -85.8398 83.3008 -82.7148 83.3008 -77.4414 C 83.3008 -72.3633 78.9062 -67.1387 70.9961 -67.1387 L 63.7207 -67.1387 L 63.7207 -41.2598 L 98.1445 -41.2598 C 103.467 -41.2598 106.348 -43.3105 106.348 -48.5352 L 106.348 -59.8633 C 106.348 -65.0391 103.467 -67.1387 98.1445 -67.1387 L 86.7188 -67.1387 C 89.7949 -69.873 91.6016 -73.584 91.6016 -77.7832 C 91.6016 -87.207 84.082 -93.9941 74.6582 -93.9941 C 67.627 -93.9941 61.8652 -90.0879 59.375 -83.1543 C 56.8848 -90.0879 51.1719 -93.9941 44.1406 -93.9941 C 34.668 -93.9941 27.1973 -87.207 27.1973 -77.7832 C 27.1973 -73.584 28.9551 -69.873 31.9824 -67.1387 L 20.6543 -67.1387 C 15.625 -67.1387 12.4512 -65.0391 12.4512 -59.8633 L 12.4512 -48.5352 C 12.4512 -43.3105 15.3809 -41.2598 20.6543 -41.2598 Z M 55.0781 9.22852 L 55.0781 -36.0352 L 19.4336 -36.0352 L 19.4336 -3.17383 C 19.4336 4.98047 24.2188 9.22852 32.373 9.22852 Z M 63.7207 -36.0352 L 63.7207 9.22852 L 86.4258 9.22852 C 94.5801 9.22852 99.3652 4.98047 99.3652 -3.17383 L 99.3652 -36.0352 Z"/>
  </g>
  <g id="Light-M" transform="matrix(1 0 0 1 1093.59 1126)">
   <path d="M 55.6152 -42.8711 L 55.6152 -67.1387 L 49.2188 -67.1387 C 40.2832 -67.1387 35.791 -72.8516 35.791 -78.0762 C 35.791 -83.0078 39.5996 -86.0352 44.4824 -86.0352 C 51.1719 -86.0352 55.8105 -80.6152 55.8105 -71.6797 L 55.8105 -67.1387 L 63.3301 -67.1387 L 63.3301 -71.6797 C 63.3301 -80.6152 67.9688 -86.0352 74.6582 -86.0352 C 79.541 -86.0352 83.3008 -83.0078 83.3008 -78.0762 C 83.3008 -72.8516 78.5156 -67.1387 69.873 -67.1387 L 63.4766 -67.1387 L 63.4766 -42.8711 L 99.0234 -42.8711 C 103.906 -42.8711 106.641 -45.166 106.641 -49.9512 L 106.641 -60.0098 C 106.641 -64.8438 103.906 -67.1387 99.0234 -67.1387 L 84.6191 -67.1387 C 88.4766 -69.8242 90.6738 -73.7305 90.6738 -78.125 C 90.6738 -86.8652 83.9355 -93.0664 74.9512 -93.0664 C 67.627 -93.0664 61.9141 -88.7695 59.5703 -81.25 C 57.2266 -88.7695 51.4648 -93.0664 44.1406 -93.0664 C 35.2051 -93.0664 28.418 -86.8652 28.418 -78.125 C 28.418 -73.7305 30.5664 -69.8242 34.375 -67.1387 L 20.0684 -67.1387 C 15.3809 -67.1387 12.4512 -64.8438 12.4512 -60.0098 L 12.4512 -49.9512 C 12.4512 -45.166 15.2344 -42.8711 20.0684 -42.8711 Z M 55.6152 9.42383 L 55.6152 -38.0859 L 19.8242 -38.0859 L 19.8242 -2.34375 C 19.8242 5.22461 24.3652 9.42383 31.9336 9.42383 Z M 63.4766 -38.0859 L 63.4766 9.42383 L 87.1582 9.42383 C 94.7266 9.42383 99.2676 5.22461 99.2676 -2.34375 L 99.2676 -38.0859 Z"/>
  </g>
  <g id="Thin-M" transform="matrix(1 0 0 1 796.657 1126)">
   <path d="M 56.3965 -44.9707 L 56.3965 -67.1387 L 51.123 -67.1387 C 41.0645 -67.1387 36.2305 -73.4863 36.2305 -78.9551 C 36.2305 -83.3496 39.8438 -86.3281 44.2871 -86.3281 C 51.8555 -86.3281 56.4453 -79.9316 56.4453 -69.3848 L 56.4453 -67.1387 L 63.0859 -67.1387 L 63.0859 -69.3848 C 63.0859 -79.9316 67.7246 -86.3281 75.293 -86.3281 C 79.7363 -86.3281 83.3008 -83.3496 83.3008 -78.9551 C 83.3008 -73.4863 77.9785 -67.1387 68.4082 -67.1387 L 63.1348 -67.1387 L 63.1348 -44.9707 L 100.195 -44.9707 C 104.541 -44.9707 107.08 -47.5586 107.08 -51.8555 L 107.08 -60.2539 C 107.08 -64.5508 104.541 -67.1387 100.195 -67.1387 L 81.1523 -67.1387 C 86.4746 -69.6777 89.502 -73.9746 89.502 -78.5645 C 89.502 -86.4258 83.6914 -91.8457 75.3906 -91.8457 C 67.6758 -91.8457 61.9141 -87.0605 59.7656 -78.7598 C 57.6172 -87.0605 51.9043 -91.8457 44.1406 -91.8457 C 35.8887 -91.8457 30.0781 -86.4258 30.0781 -78.5645 C 30.0781 -73.9746 32.8613 -69.6777 38.1836 -67.1387 L 19.3359 -67.1387 C 15.0879 -67.1387 12.4512 -64.5508 12.4512 -60.2539 L 12.4512 -51.8555 C 12.4512 -47.5586 15.0391 -44.9707 19.3359 -44.9707 Z M 56.3965 9.61914 L 56.3965 -40.8203 L 20.4102 -40.8203 L 20.4102 -1.26953 C 20.4102 5.56641 24.5605 9.61914 31.3965 9.61914 Z M 63.1348 -40.8203 L 63.1348 9.61914 L 88.1348 9.61914 C 94.9707 9.61914 99.1211 5.56641 99.1211 -1.26953 L 99.1211 -40.8203 Z"/>
  </g>
  <g id="Ultralight-M" transform="matrix(1 0 0 1 499.823 1126)">
   <path d="M 56.7871 -46.0449 L 56.7871 -67.1875 L 52.0996 -67.1875 C 41.4551 -67.1875 36.4746 -73.7793 36.4746 -79.4434 C 36.4746 -83.4961 39.9414 -86.4258 44.1895 -86.4258 C 52.1973 -86.4258 56.7871 -79.541 56.7871 -68.2129 L 56.7871 -67.1875 L 62.9883 -67.1875 L 62.9883 -46.0449 L 100.83 -46.0449 C 104.834 -46.0449 107.324 -48.8281 107.324 -52.832 L 107.324 -60.4004 C 107.324 -64.4043 104.834 -67.1875 100.83 -67.1875 L 78.8574 -67.1875 C 85.3027 -69.5312 88.8672 -74.0723 88.8672 -78.7598 C 88.8672 -86.2305 83.5449 -91.2598 75.5859 -91.2598 C 67.6758 -91.2598 61.9141 -86.1816 59.9121 -77.4902 C 57.8613 -86.1816 52.0996 -91.2598 44.1895 -91.2598 C 36.2305 -91.2598 30.9082 -86.2305 30.9082 -78.7598 C 30.9082 -74.0723 34.1797 -69.5312 40.6738 -67.1875 L 18.9453 -67.1875 C 14.9414 -67.1875 12.4512 -64.4043 12.4512 -60.4004 L 12.4512 -52.832 C 12.4512 -48.8281 14.9414 -46.0449 18.9453 -46.0449 Z M 62.9883 -68.2129 C 62.9883 -79.541 67.5781 -86.4258 75.6348 -86.4258 C 79.834 -86.4258 83.3008 -83.4961 83.3008 -79.4434 C 83.3008 -73.7793 77.6855 -67.1875 67.6758 -67.1875 L 62.9883 -67.1875 Z M 56.7871 9.76562 L 56.7871 -42.2363 L 20.7031 -42.2363 L 20.7031 -0.683594 C 20.7031 5.76172 24.6582 9.76562 31.1035 9.76562 Z M 62.9883 -42.2363 L 62.9883 9.76562 L 88.6719 9.76562 C 95.1172 9.76562 99.0723 5.76172 99.0723 -0.683594 L 99.0723 -42.2363 Z"/>
  </g>
  <g id="Black-S" transform="matrix(1 0 0 1 2883.89 696)">
   <path d="M 44.4336 -36.0352 L 44.4336 -59.4727 L 38.8672 -59.4727 C 33.7891 -59.4727 30.957 -62.0117 30.957 -65.918 C 30.957 -69.4824 33.5449 -71.875 37.4512 -71.875 C 41.6504 -71.875 44.4336 -68.7012 44.4336 -63.8672 L 44.4336 -59.4727 L 54.6387 -59.4727 L 54.6387 -36.0352 L 78.6133 -36.0352 C 86.3281 -36.0352 89.2578 -39.4043 89.2578 -47.0703 L 89.2578 -48.4375 C 89.2578 -56.1035 86.3281 -59.4727 78.6133 -59.4727 L 76.5137 -59.4727 C 78.6621 -61.8164 79.9805 -64.8926 79.9805 -68.3594 C 79.9805 -76.9531 72.998 -83.1543 64.502 -83.1543 C 57.5195 -83.1543 51.123 -78.7598 49.5117 -70.8984 C 47.9492 -78.7598 41.5039 -83.1543 34.5215 -83.1543 C 26.0254 -83.1543 19.043 -76.9531 19.043 -68.3594 C 19.043 -64.8926 20.3613 -61.8164 22.5098 -59.4727 L 20.4102 -59.4727 C 12.6953 -59.4727 9.76562 -56.1035 9.76562 -48.4375 L 9.76562 -47.0703 C 9.76562 -39.4043 12.6953 -36.0352 20.4102 -36.0352 Z M 54.6387 -59.4727 L 54.6387 -63.8672 C 54.6387 -68.7012 57.5684 -71.875 61.9629 -71.875 C 65.625 -71.875 68.0664 -69.4824 68.0664 -65.918 C 68.0664 -62.0605 64.9414 -59.4727 60.1562 -59.4727 Z M 44.4336 1.36719 L 44.4336 -30.6641 L 14.209 -30.6641 L 14.209 -8.98438 C 14.209 -2.53906 18.0664 1.36719 24.6582 1.36719 Z M 54.6387 -30.6641 L 54.6387 1.36719 L 74.3652 1.36719 C 80.957 1.36719 84.8145 -2.53906 84.8145 -8.98438 L 84.8145 -30.6641 Z"/>
  </g>
  <g id="Heavy-S" transform="matrix(1 0 0 1 2587.89 696)">
   <path d="M 44.043 -36.7676 L 44.043 -59.668 L 38.3789 -59.668 C 33.1055 -59.668 30.1758 -62.5 30.1758 -66.4062 C 30.1758 -70.166 32.9102 -72.5586 36.8652 -72.5586 C 41.1133 -72.5586 44.1406 -69.3848 44.1406 -64.3555 L 44.1406 -59.668 L 53.5156 -59.668 L 53.5156 -64.3555 C 53.5156 -69.3848 56.5918 -72.5586 60.9863 -72.5586 C 64.7949 -72.5586 67.4316 -70.166 67.4316 -66.4062 C 67.4316 -62.5488 64.2578 -59.668 59.2285 -59.668 L 53.5645 -59.668 L 53.5645 -36.7676 L 78.125 -36.7676 C 85.0098 -36.7676 87.8418 -39.6973 87.8418 -46.582 L 87.8418 -49.8535 C 87.8418 -56.7383 85.0098 -59.668 78.125 -59.668 L 74.707 -59.668 C 76.8555 -61.9629 78.1738 -64.9414 78.1738 -68.3594 C 78.1738 -76.7578 71.3379 -82.8125 63.0371 -82.8125 C 56.4453 -82.8125 50.4883 -78.7598 48.7793 -71.5332 C 47.1191 -78.7598 41.1133 -82.8125 34.5215 -82.8125 C 26.2207 -82.8125 19.4336 -76.7578 19.4336 -68.3594 C 19.4336 -64.9414 20.7031 -61.9629 22.8516 -59.668 L 19.4824 -59.668 C 12.5977 -59.668 9.76562 -56.7383 9.76562 -49.8535 L 9.76562 -46.582 C 9.76562 -39.6973 12.5488 -36.7676 19.4824 -36.7676 Z M 44.043 0.927734 L 44.043 -31.6406 L 14.4043 -31.6406 L 14.4043 -9.32617 C 14.4043 -2.83203 18.2617 0.927734 24.8535 0.927734 Z M 53.5645 -31.6406 L 53.5645 0.927734 L 72.7051 0.927734 C 79.2969 0.927734 83.2031 -2.83203 83.2031 -9.32617 L 83.2031 -31.6406 Z"/>
  </g>
  <g id="Bold-S" transform="matrix(1 0 0 1 2291.98 696)">
   <path d="M 43.6523 -37.5977 L 43.6523 -59.8633 L 37.793 -59.8633 C 32.3242 -59.8633 29.2969 -63.0371 29.2969 -66.9434 C 29.2969 -70.8984 32.1777 -73.3398 36.2305 -73.3398 C 40.5273 -73.3398 43.75 -70.1172 43.75 -64.9414 L 43.75 -59.8633 L 52.2461 -59.8633 L 52.2461 -64.9414 C 52.2461 -70.1172 55.5176 -73.3398 59.9121 -73.3398 C 63.8672 -73.3398 66.6992 -70.8984 66.6992 -66.9434 C 66.6992 -63.0859 63.4766 -59.8633 58.1543 -59.8633 L 52.3438 -59.8633 L 52.3438 -37.5977 L 77.5391 -37.5977 C 83.5938 -37.5977 86.2305 -40.0391 86.2305 -45.9961 L 86.2305 -51.416 C 86.2305 -57.4219 83.5938 -59.8633 77.5391 -59.8633 L 72.7051 -59.8633 C 74.8047 -62.0605 76.123 -65.0391 76.123 -68.4082 C 76.123 -76.5137 69.4824 -82.4219 61.4258 -82.4219 C 55.2734 -82.4219 49.8047 -78.8086 47.998 -72.3145 C 46.1914 -78.8086 40.7227 -82.4219 34.5703 -82.4219 C 26.4648 -82.4219 19.873 -76.5137 19.873 -68.4082 C 19.873 -65.0391 21.1426 -62.0605 23.291 -59.8633 L 18.457 -59.8633 C 12.5488 -59.8633 9.76562 -57.4219 9.76562 -51.416 L 9.76562 -45.9961 C 9.76562 -40.0391 12.4023 -37.5977 18.457 -37.5977 Z M 43.6523 0.439453 L 43.6523 -32.7637 L 14.5996 -32.7637 L 14.5996 -9.76562 C 14.5996 -3.22266 18.5059 0.439453 25.0977 0.439453 Z M 52.3438 -32.7637 L 52.3438 0.439453 L 70.8496 0.439453 C 77.4902 0.439453 81.3477 -3.22266 81.3477 -9.76562 L 81.3477 -32.7637 Z"/>
  </g>
  <g id="Semibold-S" transform="matrix(1 0 0 1 1995.83 696)">
   <path d="M 43.3594 -38.1836 L 43.3594 -59.9609 L 37.4023 -59.9609 C 31.7871 -59.9609 28.7109 -63.4277 28.7109 -67.334 C 28.7109 -71.3867 31.6895 -73.877 35.791 -73.877 C 40.1367 -73.877 43.5059 -70.6055 43.5059 -65.332 L 43.5059 -59.9609 L 51.3672 -59.9609 L 51.3672 -65.332 C 51.3672 -70.6055 54.7852 -73.877 59.1797 -73.877 C 63.2324 -73.877 66.1621 -71.3867 66.1621 -67.334 C 66.1621 -63.4277 62.9883 -59.9609 57.4219 -59.9609 L 51.5137 -59.9609 L 51.5137 -38.1836 L 77.1484 -38.1836 C 82.5684 -38.1836 85.1074 -40.2832 85.1074 -45.6055 L 85.1074 -52.5391 C 85.1074 -57.8613 82.5684 -59.9609 77.1484 -59.9609 L 71.2891 -59.9609 C 73.4375 -62.1582 74.707 -65.0879 74.707 -68.4082 C 74.707 -76.3672 68.2129 -82.1777 60.3027 -82.1777 C 54.4434 -82.1777 49.3164 -78.8086 47.4121 -72.8027 C 45.5566 -78.8086 40.4297 -82.1777 34.5703 -82.1777 C 26.6602 -82.1777 20.166 -76.3672 20.166 -68.4082 C 20.166 -65.0879 21.4355 -62.1582 23.5352 -59.9609 L 17.7246 -59.9609 C 12.4512 -59.9609 9.76562 -57.8613 9.76562 -52.5391 L 9.76562 -45.6055 C 9.76562 -40.2832 12.3047 -38.1836 17.7246 -38.1836 Z M 43.3594 0.0976562 L 43.3594 -33.4961 L 14.7461 -33.4961 L 14.7461 -10.0098 C 14.7461 -3.4668 18.6523 0.0976562 25.293 0.0976562 Z M 51.5137 -33.4961 L 51.5137 0.0976562 L 69.5801 0.0976562 C 76.2207 0.0976562 80.127 -3.4668 80.127 -10.0098 L 80.127 -33.4961 Z"/>
  </g>
  <g id="Medium-S" transform="matrix(1 0 0 1 1699.53 696)">
   <path d="M 43.1641 -38.623 L 43.1641 -60.0586 L 37.1094 -60.0586 C 31.3965 -60.0586 28.2227 -63.7207 28.2227 -67.627 C 28.2227 -71.7773 31.2988 -74.2676 35.4492 -74.2676 C 39.8438 -74.2676 43.3594 -70.9961 43.3594 -65.625 L 43.3594 -60.0586 L 50.6836 -60.0586 L 50.6836 -65.625 C 50.6836 -70.9961 54.1992 -74.2676 58.6426 -74.2676 C 62.7441 -74.2676 65.7715 -71.7773 65.7715 -67.627 C 65.7715 -63.7207 62.5488 -60.0586 56.8848 -60.0586 L 50.8789 -60.0586 L 50.8789 -38.623 L 76.8555 -38.623 C 81.8359 -38.623 84.2773 -40.4297 84.2773 -45.3125 L 84.2773 -53.3691 C 84.2773 -58.252 81.8359 -60.0586 76.8555 -60.0586 L 70.2637 -60.0586 C 72.3633 -62.2559 73.6328 -65.1367 73.6328 -68.4082 C 73.6328 -76.2695 67.2363 -81.9336 59.4727 -81.9336 C 53.8086 -81.9336 48.9746 -78.8574 47.0215 -73.1934 C 45.0684 -78.8574 40.2344 -81.9336 34.5703 -81.9336 C 26.7578 -81.9336 20.4102 -76.2695 20.4102 -68.4082 C 20.4102 -65.1367 21.6797 -62.2559 23.7793 -60.0586 L 17.1875 -60.0586 C 12.4023 -60.0586 9.76562 -58.252 9.76562 -53.3691 L 9.76562 -45.3125 C 9.76562 -40.4297 12.2559 -38.623 17.1875 -38.623 Z M 43.1641 -0.146484 L 43.1641 -34.082 L 14.8438 -34.082 L 14.8438 -10.2539 C 14.8438 -3.61328 18.75 -0.146484 25.3906 -0.146484 Z M 50.8789 -34.082 L 50.8789 -0.146484 L 68.6035 -0.146484 C 75.2441 -0.146484 79.1504 -3.61328 79.1504 -10.2539 L 79.1504 -34.082 Z"/>
  </g>
  <g id="Regular-S" transform="matrix(1 0 0 1 1403.38 696)">
   <path d="M 42.8711 -39.1602 L 42.8711 -60.2051 L 36.7676 -60.2051 C 30.8594 -60.2051 27.6367 -64.1113 27.6367 -67.9688 C 27.6367 -72.3145 30.8105 -74.8047 35.0586 -74.8047 C 39.4531 -74.8047 43.1152 -71.4844 43.1152 -65.9668 L 43.1152 -60.2051 L 49.8047 -60.2051 L 49.8047 -65.9668 C 49.8047 -71.4844 53.4668 -74.8047 57.9102 -74.8047 C 62.1094 -74.8047 65.2832 -72.3145 65.2832 -67.9688 C 65.2832 -64.1113 62.0605 -60.2051 56.1523 -60.2051 L 50.0488 -60.2051 L 50.0488 -39.1602 L 76.4648 -39.1602 C 80.8105 -39.1602 83.1543 -40.6738 83.1543 -44.9707 L 83.1543 -54.4434 C 83.1543 -58.6914 80.8105 -60.2051 76.4648 -60.2051 L 68.8477 -60.2051 C 70.9473 -62.3535 72.2168 -65.1855 72.2168 -68.4082 C 72.2168 -76.123 65.9668 -81.6895 58.3496 -81.6895 C 52.9785 -81.6895 48.4863 -78.8574 46.4844 -73.6816 C 44.4336 -78.8574 39.9414 -81.6895 34.5703 -81.6895 C 26.9531 -81.6895 20.7031 -76.123 20.7031 -68.4082 C 20.7031 -65.1855 21.9727 -62.3535 24.0234 -60.2051 L 16.4551 -60.2051 C 12.3535 -60.2051 9.76562 -58.6914 9.76562 -54.4434 L 9.76562 -44.9707 C 9.76562 -40.6738 12.1582 -39.1602 16.4551 -39.1602 Z M 42.8711 -0.439453 L 42.8711 -34.8633 L 14.9902 -34.8633 L 14.9902 -10.498 C 14.9902 -3.85742 18.8965 -0.439453 25.5859 -0.439453 Z M 50.0488 -34.8633 L 50.0488 -0.439453 L 67.334 -0.439453 C 74.0234 -0.439453 77.9297 -3.85742 77.9297 -10.498 L 77.9297 -34.8633 Z"/>
  </g>
  <g id="Light-S" transform="matrix(1 0 0 1 1106.53 696)">
   <path d="M 43.3594 -40.5762 L 43.3594 -60.2051 L 38.0371 -60.2051 C 31.3477 -60.2051 27.9297 -64.502 27.9297 -68.5547 C 27.9297 -72.5586 30.957 -74.9512 34.9121 -74.9512 C 39.8926 -74.9512 43.5547 -70.9961 43.5547 -64.4531 L 43.5547 -60.2051 L 49.6582 -60.2051 L 49.6582 -64.4531 C 49.6582 -70.9961 53.3203 -74.9512 58.3008 -74.9512 C 62.2559 -74.9512 65.2832 -72.5586 65.2832 -68.5547 C 65.2832 -64.502 61.6699 -60.2051 55.1758 -60.2051 L 49.8535 -60.2051 L 49.8535 -40.5762 L 77.2461 -40.5762 C 81.25 -40.5762 83.4473 -42.2852 83.4473 -46.2402 L 83.4473 -54.5898 C 83.4473 -58.4961 81.25 -60.2051 77.2461 -60.2051 L 67.1387 -60.2051 C 69.8242 -62.3535 71.4355 -65.332 71.4355 -68.7012 C 71.4355 -75.8301 65.8203 -80.9082 58.6426 -80.9082 C 52.9785 -80.9082 48.4863 -77.6855 46.6309 -72.0215 C 44.7266 -77.6855 40.2344 -80.9082 34.5703 -80.9082 C 27.3926 -80.9082 21.7773 -75.8301 21.7773 -68.7012 C 21.7773 -65.332 23.3398 -62.3535 25.9766 -60.2051 L 15.9668 -60.2051 C 12.1582 -60.2051 9.76562 -58.4961 9.76562 -54.5898 L 9.76562 -46.2402 C 9.76562 -42.2852 12.0117 -40.5762 15.9668 -40.5762 Z M 43.3594 -0.292969 L 43.3594 -36.6699 L 15.3809 -36.6699 L 15.3809 -9.76562 C 15.3809 -3.61328 19.043 -0.292969 25.1953 -0.292969 Z M 49.8535 -36.6699 L 49.8535 -0.292969 L 68.0176 -0.292969 C 74.1699 -0.292969 77.832 -3.61328 77.832 -9.76562 L 77.832 -36.6699 Z"/>
  </g>
  <g id="Thin-S" transform="matrix(1 0 0 1 809.62 696)">
   <path d="M 44.043 -42.4805 L 44.043 -60.2539 L 39.6973 -60.2539 C 32.0312 -60.2539 28.3203 -65.0879 28.3203 -69.3359 C 28.3203 -72.8516 31.1523 -75.1953 34.7168 -75.1953 C 40.4785 -75.1953 44.0918 -70.3613 44.0918 -62.4023 L 44.0918 -60.2539 L 49.5117 -60.2539 L 49.5117 -62.4023 C 49.5117 -70.3613 53.125 -75.1953 58.8867 -75.1953 C 62.4512 -75.1953 65.2832 -72.8516 65.2832 -69.3359 C 65.2832 -65.0879 61.1816 -60.2539 53.9062 -60.2539 L 49.5605 -60.2539 L 49.5605 -42.4805 L 78.2715 -42.4805 C 81.7871 -42.4805 83.8379 -44.4336 83.8379 -47.9004 L 83.8379 -54.7852 C 83.8379 -58.252 81.7871 -60.2539 78.2715 -60.2539 L 64.3066 -60.2539 C 68.1641 -62.2559 70.3613 -65.5273 70.3613 -69.0918 C 70.3613 -75.4395 65.625 -79.834 58.9844 -79.834 C 53.0273 -79.834 48.5352 -76.1719 46.7773 -69.8242 C 45.0684 -76.1719 40.5762 -79.834 34.6191 -79.834 C 27.9785 -79.834 23.2422 -75.4395 23.2422 -69.0918 C 23.2422 -65.5273 25.293 -62.2559 29.1016 -60.2539 L 15.332 -60.2539 C 11.9141 -60.2539 9.76562 -58.252 9.76562 -54.7852 L 9.76562 -47.9004 C 9.76562 -44.4336 11.8164 -42.4805 15.332 -42.4805 Z M 44.043 -0.146484 L 44.043 -39.1113 L 15.8691 -39.1113 L 15.8691 -8.83789 C 15.8691 -3.32031 19.2383 -0.146484 24.707 -0.146484 Z M 49.5605 -39.1113 L 49.5605 -0.146484 L 68.8965 -0.146484 C 74.3652 -0.146484 77.7344 -3.32031 77.7344 -8.83789 L 77.7344 -39.1113 Z"/>
  </g>
  <g id="Ultralight-S" transform="matrix(1 0 0 1 512.812 696)">
   <path d="M 44.3848 -43.4082 L 44.3848 -60.2539 L 40.5762 -60.2539 C 32.373 -60.2539 28.5156 -65.3809 28.5156 -69.7266 C 28.5156 -72.998 31.25 -75.293 34.6191 -75.293 C 40.8203 -75.293 44.4336 -70.0684 44.4336 -61.377 L 44.4336 -60.2539 L 49.3652 -60.2539 L 49.3652 -61.377 C 49.3652 -70.0684 53.0273 -75.293 59.1797 -75.293 C 62.5488 -75.293 65.2832 -72.998 65.2832 -69.7266 C 65.2832 -65.3809 60.9375 -60.2539 53.2227 -60.2539 L 49.4141 -60.2539 L 49.4141 -43.4082 L 78.8086 -43.4082 C 82.0801 -43.4082 84.0332 -45.5566 84.0332 -48.7793 L 84.0332 -54.8828 C 84.0332 -58.1543 82.0801 -60.2539 78.8086 -60.2539 L 62.4512 -60.2539 C 67.1875 -62.1582 69.8242 -65.625 69.8242 -69.2871 C 69.8242 -75.2441 65.5273 -79.2969 59.1797 -79.2969 C 53.0273 -79.2969 48.5352 -75.3906 46.9238 -68.6523 C 45.2637 -75.3906 40.7715 -79.2969 34.6191 -79.2969 C 28.3203 -79.2969 23.9746 -75.2441 23.9746 -69.2871 C 23.9746 -65.625 26.416 -62.1582 31.1523 -60.2539 L 14.9902 -60.2539 C 11.7676 -60.2539 9.76562 -58.1543 9.76562 -54.8828 L 9.76562 -48.7793 C 9.76562 -45.5566 11.7188 -43.4082 14.9902 -43.4082 Z M 44.3848 0 L 44.3848 -40.332 L 16.1621 -40.332 L 16.1621 -8.30078 C 16.1621 -3.17383 19.3359 0 24.4629 0 Z M 49.4141 -40.332 L 49.4141 0 L 69.3359 0 C 74.4629 0 77.6367 -3.17383 77.6367 -8.30078 L 77.6367 -40.332 Z"/>
  </g>
 </g>
</svg>
